# xmcd
#
# Track frame offsets:
#	150
#	12419
#	21988
#	33287
#	45137
#	57083
#	67548
#	79515
#	90797
#	100068
#	110979
#	123322
#	133928
#	142500
#	153509
#	164426
#	175320
#	187501
#	196200
#	207873
#	218812
#	227466
#	237468
#	247770
#	258897
#
# Disc length: 3610 seconds
#
# Revision: 0
# Processed by: cddbd v1.5.1PL2 Copyright (c) Steve Scherf et al.
# Submitted via: audiograbber 1.83.01
#
DISCID=300e1819
DTITLE=dieverse Interpreten - 60ties CD1
DYEAR=1900
DGENRE=
TTITLE0=Danny Williams
TTITLE1=Joey Dee and The Starliters
TTITLE2=The Marvelettes
TTITLE3=Johnny Tillotson
TTITLE4=Dion and The Bellmonts
TTITLE5=Del Shannon
TTITLE6=Johnny Preston
TTITLE7=The Drifters
TTITLE8=Tommy Roe
TTITLE9=The Tymes
TTITLE10=Jan and Dean
TTITLE11=The Marcels
TTITLE12=The Newbeats
TTITLE13=Everly Brothers
TTITLE14=Herman's Hermits
TTITLE15=Brian Poole
TTITLE16=The Chrystals
TTITLE17=The Chiffons
TTITLE18=Paul and Paula
TTITLE19=Bruce Channel
TTITLE20=Gerry and The Pacamakers
TTITLE21=Dale and Grace
TTITLE22=Lesley Gore
TTITLE23=Chubby Checker
TTITLE24=Pat Boone
EXTD=
EXTT0=
EXTT1=
EXTT2=
EXTT3=
EXTT4=
EXTT5=
EXTT6=
EXTT7=
EXTT8=
EXTT9=
EXTT10=
EXTT11=
EXTT12=
EXTT13=
EXTT14=
EXTT15=
EXTT16=
EXTT17=
EXTT18=
EXTT19=
EXTT20=
EXTT21=
EXTT22=
EXTT23=
EXTT24=
PLAYORDER=
